              Total.Recall.2012.EXTENDED.DC.BDRiP.XViD.avi

Format                                   : AVI
Format/Info                              : Audio Video Interleave
Format profile                           : OpenDML
File size                                : 1.12 GiB
Duration                                 : 2h 10mn
Overall bit rate                         : 1 232 Kbps
Writing application                      : Lavf53.24.0

Video
ID                                       : 0
Format                                   : xvid
Codec ID                                 : xvid
Duration                                 : 2h 10mn
Bit rate                                 : 1 104 Kbps
Width                                    : 960 pixels
Height                                   : 400 pixels
Display aspect ratio                     : 2.40:1
Frame rate                               : 23.976 fps
Bits/(Pixel*Frame)                       : 0.120
Stream size                              : 1.00 GiB (90%)

Audio
ID                                       : 1
Format                                   : MPEG Audio
Format version                           : Version 1
Format profile                           : Layer 3
Mode                                     : Joint stereo
Mode extension                           : MS Stereo
Codec ID                                 : 55
Codec ID/Hint                            : MP3
Duration                                 : 2h 10mn
Bit rate mode                            : Constant
Bit rate                                 : 112 Kbps
Channel(s)                               : 2 channels
Sampling rate                            : 48.0 KHz
Compression mode                         : Lossy
Stream size                              : 104 MiB (9%)
Alignment                                : Aligned on interleaves
Interleave, duration                     : 24 ms (0.58 video frame)
Writing library                          : LAME3.98.4

